<?xml version="1.0" encoding="utf-8"?>
<!-- Generator: Adobe Illustrator 23.0.1, SVG Export Plug-In . SVG Version: 6.00 Build 0)  -->
<svg version="1.1" id="Laag_1" xmlns="http://www.w3.org/2000/svg" xmlns:xlink="http://www.w3.org/1999/xlink" x="0px" y="0px"
	 viewBox="0 0 73.4 60.4" style="enable-background:new 0 0 73.4 60.4;" xml:space="preserve">
<style type="text/css">
	.st0{fill:#F2F2F2;}
</style>
<g>
	<path class="st0" d="M32,46.6c0,3.8-1.3,7-4,9.7c-2.7,2.7-6.1,4.1-10.3,4.1c-5.3,0-9.5-2.3-12.8-6.9C1.6,48.9,0,43.7,0,38
		c0-5.8,1.6-11.9,4.8-18.3C8,13.3,11.3,8.3,14.7,5c3.4-3.3,5.5-5,6.4-5c0.6,0,1.9,0.7,3.9,2.2L26,2.8c1.5,1.1,2.3,1.9,2.3,2.5
		c0,0.4-0.8,1.8-2.5,4.2c-4.6,6.6-6.9,11.8-6.9,15.7c0,2.9,2.2,5.9,6.5,9C29.8,37.3,32,41.4,32,46.6z M73.4,46.6
		c0,3.8-1.4,7-4.1,9.7c-2.7,2.7-6.1,4.1-10.2,4.1c-5.3,0-9.5-2.3-12.8-6.9c-3.3-4.6-4.9-9.8-4.9-15.4c0-8.3,3-16.7,9-25.2
		C56.3,4.3,60.4,0,62.5,0c0.6,0,1.9,0.7,3.9,2.2l0.9,0.6c1.5,1.1,2.3,1.9,2.3,2.5c0,0.4-0.8,1.8-2.5,4.2c-4.6,6.6-7,11.8-7,15.7
		c0,2.9,2.2,5.9,6.6,9C71.2,37.3,73.4,41.4,73.4,46.6z"/>
</g>
</svg>
